<svg width="375" height="683" viewBox="0 0 375 683" fill="none" xmlns="http://www.w3.org/2000/svg">
<g clip-path="url(#clip0_40002014_815)">
<rect width="375" height="20" transform="matrix(1 0 0 -1 0 20)" fill="#FFF6F0"/>
<path d="M187.704 687C380.288 687 536.408 637.975 536.408 577.5C536.408 547.292 497.455 519.943 434.463 500.132V186.869C497.456 167.058 536.408 139.707 536.408 109.5C536.408 49.0245 380.288 -0.000488281 187.704 -0.000488281C-4.87954 -0.000472743 -160.999 49.0245 -161 109.5C-161 139.806 -121.792 167.237 -58.4355 187.063V499.938C-121.792 519.764 -161 547.193 -161 577.5C-161 637.975 -4.87986 686.999 187.704 687Z" fill="#FFE2CA"/>
<mask id="mask0_40002014_815" style="mask-type:alpha" maskUnits="userSpaceOnUse" x="-78" y="-368" width="531" height="687">
<path d="M187.296 -368C333.815 -368 452.592 -318.975 452.592 -258.5C452.592 -228.292 422.956 -200.943 375.031 -181.132V132.131C422.956 151.942 452.592 179.292 452.592 209.5C452.592 269.975 333.815 319 187.296 319C40.777 319 -78 269.975 -78 209.5C-78 179.194 -48.1703 151.764 0.03125 131.938V-180.938C-48.1701 -200.765 -78 -228.194 -78 -258.5C-78 -318.975 40.777 -368 187.296 -368Z" fill="#FFE2CA"/>
</mask>
<g mask="url(#mask0_40002014_815)">
<g opacity="0.12">
<path d="M-173.244 58.1075L547.903 -621.939V-601.433L-173.244 72.8209V58.1075Z" fill="white"/>
<path d="M-173.244 14.0548L547.903 -665.992V-645.486L-173.244 28.7681V14.0548Z" fill="white"/>
<path d="M547.905 -5.2168V15.2897L76.542 456.001H58.8125L547.905 -5.2168Z" fill="white"/>
<path d="M-173.244 102.158L547.903 -577.889V-557.382L-173.244 116.872V102.158Z" fill="white"/>
<path d="M547.905 -49.2715V-28.765L29.4266 455.997H12.0977L547.905 -49.2715Z" fill="white"/>
<path d="M-173.244 234.315L547.903 -445.736V-425.226L-173.244 249.028V234.315Z" fill="white"/>
<path d="M547.904 -93.3242V-72.8138L-17.6889 456H-34.6172L547.904 -93.3242Z" fill="white"/>
<path d="M-173.244 322.418L547.903 -357.629V-337.122L-173.244 337.131V322.418Z" fill="white"/>
<path d="M-173.244 190.266L547.903 -489.785V-469.279L-173.244 204.979V190.266Z" fill="white"/>
<path d="M-173.244 146.209L547.903 -533.838V-513.331L-173.244 160.926V146.209Z" fill="white"/>
<path d="M-173.244 278.365L547.903 -401.686V-381.175L-173.244 293.079V278.365Z" fill="white"/>
<path d="M-173.244 366.471L547.903 -313.576V-293.07L-173.244 381.184V366.471Z" fill="white"/>
<path d="M547.904 -137.377V-116.867L-64.8044 455.998H-81.332L547.904 -137.377Z" fill="white"/>
<path d="M547.903 -181.426V-160.919L-111.92 456H-128.047L547.903 -181.426Z" fill="white"/>
<path d="M-173.244 410.52L547.903 -269.527V-249.021L-173.244 425.233V410.52Z" fill="white"/>
<path d="M-173.244 454.57L547.903 -225.477V-204.97L-159.035 456H-173.244V454.57Z" fill="white"/>
</g>
</g>
</g>
<g clip-path="url(#clip1_40002014_815)">
<rect width="375" height="258" transform="translate(0 20)" fill="#FFE2CA"/>
<mask id="mask1_40002014_815" style="mask-type:alpha" maskUnits="userSpaceOnUse" x="0" y="16" width="376" height="473">
<path d="M375.031 489H0.03125V16H375.031V489Z" fill="#FFE2CA"/>
</mask>
<g mask="url(#mask1_40002014_815)">
<g opacity="0.12">
<path d="M-172.93 13.6953L509.493 -631H531.067L-172.93 28.4087V13.6953Z" fill="white"/>
<path d="M-172.93 57.7443L546.914 -622.303V-601.796L-172.93 72.4576V57.7443Z" fill="white"/>
<path d="M-172.93 366.108L546.914 -313.939V-293.433L-172.93 380.821V366.108Z" fill="white"/>
<path d="M-172.93 101.799L546.914 -578.248V-557.742L-172.93 116.512V101.799Z" fill="white"/>
<path d="M-172.93 233.953L546.914 -446.098V-425.587L-172.93 248.667V233.953Z" fill="white"/>
<path d="M-172.93 278.006L546.914 -402.045V-381.535L-172.93 292.719V278.006Z" fill="white"/>
<path d="M-172.93 145.85L546.914 -534.197V-513.691L-172.93 160.567V145.85Z" fill="white"/>
<path d="M-172.93 189.902L546.914 -490.148V-469.642L-172.93 204.616V189.902Z" fill="white"/>
<path d="M-172.93 322.055L546.914 -357.992V-337.486L-172.93 336.768V322.055Z" fill="white"/>
<path d="M-172.93 410.158L546.914 -269.889V-249.382L-172.93 424.872V410.158Z" fill="white"/>
<path d="M546.915 258.729V279.235L29.3738 763.997H12.0762L546.915 258.729Z" fill="white"/>
<path d="M-172.93 542.315L546.914 -137.736V-117.226L-172.93 557.028V542.315Z" fill="white"/>
<path d="M546.914 214.676V235.186L-17.657 764H-34.5547L546.914 214.676Z" fill="white"/>
<path d="M-172.93 630.418L546.914 -49.6289V-29.1224L-172.93 645.131V630.418Z" fill="white"/>
<path d="M-172.93 498.266L546.914 -181.785V-161.279L-172.93 512.979V498.266Z" fill="white"/>
<path d="M-172.93 454.209L546.914 -225.838V-205.331L-172.93 468.926V454.209Z" fill="white"/>
<path d="M-172.93 586.365L546.914 -93.6855V-73.1752L-172.93 601.079V586.365Z" fill="white"/>
<path d="M-172.93 674.471L546.914 -5.57617V14.9303L-172.93 689.184V674.471Z" fill="white"/>
<path d="M546.915 170.623V191.133L-64.6858 763.998H-81.1836L546.915 170.623Z" fill="white"/>
<path d="M546.914 126.574V147.081L-111.717 764H-127.814L546.914 126.574Z" fill="white"/>
<path d="M-172.93 718.52L546.914 38.4727V58.9791L-172.93 733.233V718.52Z" fill="white"/>
<path d="M-172.93 762.57L546.914 82.5234V103.03L-158.746 764H-172.93V762.57Z" fill="white"/>
</g>
</g>
</g>
<g clip-path="url(#clip2_40002014_815)">
<rect width="375" height="385" transform="translate(0 278)" fill="#FFE2CA"/>
<mask id="mask2_40002014_815" style="mask-type:alpha" maskUnits="userSpaceOnUse" x="0" y="81" width="376" height="584">
<path d="M375.031 664.008H0.03125V81.0083H375.031V664.008Z" fill="#FFE2CA"/>
</mask>
<g mask="url(#mask2_40002014_815)">
<g opacity="0.12">
<path d="M-172.93 363.116L546.914 -316.931V-296.425L-172.93 377.829V363.116Z" fill="white"/>
<path d="M-172.93 275.014L546.914 -405.037V-384.526L-172.93 289.728V275.014Z" fill="white"/>
<path d="M-172.93 319.063L546.914 -360.984V-340.477L-172.93 333.776V319.063Z" fill="white"/>
<path d="M546.917 564.102V584.609L358.59 761.01H338.482L546.917 564.102Z" fill="white"/>
<path d="M546.91 387.891V408.398L170.458 761.007H151.961L546.91 387.891Z" fill="white"/>
<path d="M546.909 431.938V452.444L217.487 761.003H198.59L546.909 431.938Z" fill="white"/>
<path d="M546.917 343.84V364.347L123.435 761.007H105.338L546.917 343.84Z" fill="white"/>
<path d="M546.916 299.792V320.298L76.4045 761.01H58.707L546.916 299.792Z" fill="white"/>
<path d="M546.92 475.993V496.503L264.528 761.007H245.23L546.92 475.993Z" fill="white"/>
<path d="M546.908 520.043V540.554L311.546 761.007H291.844L546.908 520.043Z" fill="white"/>
<path d="M-172.93 407.167L546.914 -272.88V-252.374L-172.93 421.88V407.167Z" fill="white"/>
<path d="M546.915 255.737V276.243L29.3738 761.006H12.0762L546.915 255.737Z" fill="white"/>
<path d="M-172.93 539.323L546.914 -140.728V-120.218L-172.93 554.036V539.323Z" fill="white"/>
<path d="M546.914 211.684V232.195L-17.657 761.008H-34.5547L546.914 211.684Z" fill="white"/>
<path d="M-172.93 627.426L546.914 -52.6206V-32.1141L-172.93 642.14V627.426Z" fill="white"/>
<path d="M-172.93 495.274L546.914 -184.777V-164.27L-172.93 509.987V495.274Z" fill="white"/>
<path d="M-172.93 451.217L546.914 -228.83V-208.323L-172.93 465.935V451.217Z" fill="white"/>
<path d="M-172.93 583.374L546.914 -96.6772V-76.1668L-172.93 598.087V583.374Z" fill="white"/>
<path d="M-172.93 671.479L546.914 -8.56787V11.9386L-172.93 686.192V671.479Z" fill="white"/>
<path d="M546.915 167.631V188.142L-64.6858 761.006H-81.1836L546.915 167.631Z" fill="white"/>
<path d="M546.914 123.583V144.089L-111.717 761.008H-127.814L546.914 123.583Z" fill="white"/>
<path d="M-172.93 715.528L546.914 35.481V55.9874L-172.93 730.241V715.528Z" fill="white"/>
<path d="M-172.93 759.579L546.914 79.5317V100.038L-158.746 761.009H-172.93V759.579Z" fill="white"/>
</g>
</g>
</g>
<g clip-path="url(#clip3_40002014_815)">
<rect width="375" height="20" transform="translate(0 663)" fill="#FFF6F0"/>
<path d="M187.704 -4.00977C380.288 -4.00977 536.408 45.0151 536.408 105.49C536.408 135.698 497.455 163.047 434.463 182.857V496.121C497.456 515.932 536.408 543.283 536.408 573.49C536.408 633.965 380.288 682.99 187.704 682.99C-4.87954 682.99 -160.999 633.965 -161 573.49C-161 543.184 -121.792 515.753 -58.4355 495.927V183.052C-121.792 163.226 -161 135.796 -161 105.49C-161 45.0151 -4.87986 -4.00975 187.704 -4.00977Z" fill="#FFE2CA"/>
<mask id="mask3_40002014_815" style="mask-type:alpha" maskUnits="userSpaceOnUse" x="-78" y="244" width="531" height="688">
<path d="M187.296 244.01C333.815 244.01 452.592 293.035 452.592 353.51C452.592 383.718 422.956 411.068 375.031 430.878V744.141C422.956 763.952 452.592 791.303 452.592 821.51C452.592 881.985 333.815 931.01 187.296 931.01C40.777 931.01 -78 881.985 -78 821.51C-78 791.204 -48.1703 763.774 0.03125 743.948V431.072C-48.1701 411.246 -78 383.816 -78 353.51C-78 293.035 40.777 244.01 187.296 244.01Z" fill="#FFE2CA"/>
</mask>
<g mask="url(#mask3_40002014_815)">
<g opacity="0.12">
<path d="M-173.244 670.118L547.903 -9.9292V10.5773L-173.244 684.831V670.118Z" fill="white"/>
<path d="M547.906 650.842V671.349L123.658 1068.01H105.527L547.906 650.842Z" fill="white"/>
<path d="M547.905 606.793V627.3L76.542 1068.01H58.8125L547.905 606.793Z" fill="white"/>
<path d="M-173.244 714.169L547.903 34.1216V54.6281L-173.244 728.882V714.169Z" fill="white"/>
<path d="M547.905 562.739V583.245L29.4266 1068.01H12.0977L547.905 562.739Z" fill="white"/>
<path d="M-173.244 846.325L547.903 166.274V186.784L-173.244 861.038V846.325Z" fill="white"/>
<path d="M547.904 518.686V539.196L-17.6889 1068.01H-34.6172L547.904 518.686Z" fill="white"/>
<path d="M-173.244 934.428L547.903 254.381V274.888L-173.244 949.142V934.428Z" fill="white"/>
<path d="M-173.244 802.276L547.903 122.225V142.732L-173.244 816.989V802.276Z" fill="white"/>
<path d="M-173.244 758.219L547.903 78.1724V98.6789L-173.244 772.937V758.219Z" fill="white"/>
<path d="M-173.244 890.376L547.903 210.325V230.835L-173.244 905.089V890.376Z" fill="white"/>
<path d="M-173.244 978.481L547.903 298.434V318.941L-173.244 993.194V978.481Z" fill="white"/>
<path d="M547.904 474.633V495.144L-64.8044 1068.01H-81.332L547.904 474.633Z" fill="white"/>
<path d="M547.903 430.584V451.091L-111.92 1068.01H-128.047L547.903 430.584Z" fill="white"/>
<path d="M-173.244 1022.53L547.903 342.483V362.989L-173.244 1037.24V1022.53Z" fill="white"/>
<path d="M-173.244 1066.58L547.903 386.534V407.04L-159.035 1068.01H-173.244V1066.58Z" fill="white"/>
</g>
</g>
</g>
<defs>
<clipPath id="clip0_40002014_815">
<rect width="375" height="20" fill="white" transform="matrix(1 0 0 -1 0 20)"/>
</clipPath>
<clipPath id="clip1_40002014_815">
<rect width="375" height="258" fill="white" transform="translate(0 20)"/>
</clipPath>
<clipPath id="clip2_40002014_815">
<rect width="375" height="385" fill="white" transform="translate(0 278)"/>
</clipPath>
<clipPath id="clip3_40002014_815">
<rect width="375" height="20" fill="white" transform="translate(0 663)"/>
</clipPath>
</defs>
</svg>
