<svg width="20" height="24" viewBox="0 0 20 24" fill="none" xmlns="http://www.w3.org/2000/svg">
<g clip-path="url(#clip0_6852_21123)">
<path d="M13.19 12.3597C13.37 12.1297 13.62 11.9797 13.91 11.9797C14.48 11.9797 14.87 12.5597 14.55 13.0297C14.17 13.6097 13.68 14.1097 13.09 14.5197C12.16 15.1597 11.13 15.4797 10 15.4797C8.87 15.4797 7.84 15.1597 6.91 14.5197C6.32 14.1097 5.83 13.6097 5.45 13.0297C5.37 12.9097 5.33 12.7897 5.33 12.6697C5.33 12.3097 5.66 11.9797 6.09 11.9797C6.38 11.9797 6.63 12.1297 6.81 12.3597C7.13 12.7997 7.54 13.1597 8.01 13.4397C8.62 13.7997 9.28 13.9797 10 13.9797C10.72 13.9797 11.38 13.7997 11.99 13.4397C12.46 13.1597 12.87 12.7997 13.19 12.3597Z" fill="#43C66F"/>
<path d="M7.60019 9.57964C7.60019 10.2424 7.06294 10.7796 6.4002 10.7796C5.73745 10.7796 5.2002 10.2424 5.2002 9.57964C5.2002 8.9169 5.73745 8.37964 6.4002 8.37964C7.06294 8.37964 7.60019 8.9169 7.60019 9.57964Z" fill="#43C66F"/>
<path d="M14.7999 9.57964C14.7999 10.2424 14.2626 10.7796 13.5999 10.7796C12.9372 10.7796 12.3999 10.2424 12.3999 9.57964C12.3999 8.9169 12.9372 8.37964 13.5999 8.37964C14.2626 8.37964 14.7999 8.9169 14.7999 9.57964Z" fill="#43C66F"/>
<path d="M12.8482 21.9682C11.9455 22.2359 10.9895 22.3796 10 22.3796C4.47715 22.3796 0 17.9025 0 12.3796C0 6.85679 4.47715 2.37964 10 2.37964C15.5228 2.37964 20 6.85679 20 12.3796C20 13.0916 19.9256 13.7861 19.7842 14.4559C19.2085 14.1029 18.5282 13.9053 17.8591 13.8821C17.9516 13.3955 18 12.8932 18 12.3796C18 7.96136 14.4183 4.37964 10 4.37964C5.58172 4.37964 2 7.96136 2 12.3796C2 16.7979 5.58172 20.3796 10 20.3796C10.4647 20.3796 10.9202 20.34 11.3632 20.264C11.4466 20.3912 11.5325 20.513 11.6193 20.6291C11.9792 21.1109 12.4037 21.5604 12.8482 21.9682Z" fill="#43C66F"/>
<path fill-rule="evenodd" clip-rule="evenodd" d="M16.1681 22.3436C16.1881 22.3347 16.2074 22.3241 16.2258 22.3119C17.1902 21.7015 18.3966 20.7785 19.1791 19.7312C19.5723 19.205 19.8757 18.6247 19.9697 18.0187C20.0657 17.4 19.9396 16.7738 19.5075 16.1886C19.1291 15.6761 18.3408 15.331 17.5706 15.3852C17.1725 15.4132 16.7655 15.5481 16.413 15.8322C16.2601 15.9553 16.1216 16.1032 16 16.2765C15.8784 16.1032 15.7399 15.9553 15.587 15.8322C15.2345 15.5481 14.8275 15.4132 14.4294 15.3852C13.6592 15.331 12.8709 15.6761 12.4925 16.1886C12.0604 16.7738 11.9343 17.4 12.0303 18.0187C12.1243 18.6247 12.4277 19.205 12.8209 19.7312C13.6034 20.7785 14.8098 21.7015 15.7742 22.3119C15.7926 22.3241 15.8119 22.3347 15.8319 22.3436C15.9407 22.3928 16.0638 22.3905 16.1681 22.3436Z" fill="#43C66F"/>
</g>
<defs>
<clipPath id="clip0_6852_21123">
<rect width="20" height="24" fill="white"/>
</clipPath>
</defs>
</svg>
