<svg width="28" height="24" viewBox="0 0 28 24" fill="none" xmlns="http://www.w3.org/2000/svg">
<path d="M0.000493763 23.7131L13.9566 -1.50953e-05L27.9128 23.7131H0.000493763ZM13.9566 20.9445C14.5124 20.9445 14.9824 20.7489 15.3667 20.3578C15.7578 19.9667 15.9533 19.4967 15.9533 18.9478C15.9533 18.392 15.7578 17.9186 15.3667 17.5275C14.9824 17.1364 14.5124 16.9408 13.9566 16.9408C13.4077 16.9408 12.9377 17.1364 12.5466 17.5275C12.1555 17.9186 11.96 18.392 11.96 18.9478C11.96 19.4967 12.1555 19.9667 12.5466 20.3578C12.9377 20.7489 13.4077 20.9445 13.9566 20.9445ZM12.4128 14.8001H15.5005L15.6445 7.90435H12.2687L12.4128 14.8001Z" fill="#E61E0A"/>
</svg>
