<svg width="24" height="24" viewBox="0 0 24 24" fill="none" xmlns="http://www.w3.org/2000/svg">
<path d="M19.597 7C20.0677 4.77 19.3466 3.53 18.8158 2.96C18.0145 2.1 16.7826 1.8 15.5206 2.14C14.3487 2.46 12.9765 3.43 11.995 5.19C11.0034 3.42 9.64127 2.45 8.46942 2.14C7.20743 1.8 5.97549 2.11 5.17422 2.96C4.64338 3.53 3.92225 4.76 4.39299 7C3.34133 7.06 2.5 7.92 2.5 8.99V20C2.5 21.1 3.40142 22 4.50316 22H19.4968C20.5986 22 21.5 21.1 21.5 20V8.99C21.5 7.92 20.6587 7.06 19.607 7H19.597ZM10.9934 8.99V13.5H4.49315V8.99H10.9934ZM12.9966 8.99H19.4968V13.5H12.9966V8.99ZM16.0414 4.07C16.3619 3.98 16.9528 3.9 17.3535 4.33C17.8042 4.82 17.8743 5.79 17.5438 6.99H13.3571C14.0582 5.22 15.18 4.3 16.0414 4.07ZM6.62652 4.33C7.02715 3.9 7.61808 3.98 7.93859 4.07C8.79995 4.3 9.92172 5.21 10.6228 6.99H6.43622C6.10569 5.79 6.1758 4.82 6.62652 4.33ZM4.49315 15.49H10.9934V20H4.49315V15.49ZM12.9966 20V15.49H19.4968V20H12.9966Z" fill="white"/>
</svg>
