<svg width="30" height="30" viewBox="0 0 30 30" fill="none" xmlns="http://www.w3.org/2000/svg">
<path d="M16.7617 15L24.6367 7.13745C25.1242 6.64995 25.1242 5.86245 24.6367 5.37495C24.1492 4.88745 23.3617 4.88745 22.8742 5.37495L15.0117 13.2375L7.13672 5.36245C6.64922 4.87495 5.84922 4.87495 5.36172 5.36245C4.87422 5.84995 4.87422 6.64995 5.36172 7.13745L13.2242 15L5.36172 22.8624C4.87422 23.35 4.87422 24.1375 5.36172 24.625C5.61172 24.875 5.92422 24.9874 6.24922 24.9874C6.57422 24.9874 6.88672 24.8624 7.13672 24.625L14.9992 16.7625L22.8617 24.625C23.1117 24.875 23.4242 24.9874 23.7492 24.9874C24.0742 24.9874 24.3867 24.8624 24.6367 24.625C25.1242 24.1375 25.1242 23.35 24.6367 22.8624L16.7742 15H16.7617Z" fill="#969696"/>
</svg>
