<svg width="14" height="12" viewBox="0 0 14 12" fill="none" xmlns="http://www.w3.org/2000/svg">
<path d="M0.814453 5.1848C0.364502 5.1848 -0.000255048 5.54956 -0.000255048 5.99951C-0.000255048 6.44946 0.364502 6.81422 0.814453 6.81422V5.99951V5.1848ZM13.3905 6.5756C13.7087 6.25743 13.7087 5.74159 13.3905 5.42343L8.20577 0.238655C7.8876 -0.0795083 7.37176 -0.0795083 7.0536 0.238655C6.73543 0.556818 6.73543 1.07266 7.0536 1.39083L11.6623 5.99951L7.0536 10.6082C6.73543 10.9264 6.73543 11.4422 7.0536 11.7604C7.37176 12.0785 7.8876 12.0785 8.20577 11.7604L13.3905 6.5756ZM0.814453 5.99951V6.81422H12.8145V5.99951V5.1848H0.814453V5.99951Z" fill="#43C66F"/>
</svg>
