<svg width="24" height="24" viewBox="0 0 24 24" fill="none" xmlns="http://www.w3.org/2000/svg">
<rect width="24" height="24" fill="white"/>
<path fill-rule="evenodd" clip-rule="evenodd" d="M16.9855 6.91C16.9855 9.62 14.7443 11.82 11.9928 11.82C9.24124 11.82 7 9.62 7 6.91C7 4.2 9.24124 2 11.9928 2C14.7443 2 16.9855 4.2 16.9855 6.91ZM21 20.87C21 17.49 19.6292 14.47 17.358 12.61H17.348C16.9678 12.3 16.4275 12.26 16.0272 12.54C14.8866 13.34 13.4958 13.82 11.995 13.82C10.4942 13.82 9.10339 13.34 7.96276 12.54C7.56253 12.26 7.02224 12.29 6.64202 12.61C4.36076 14.47 3 17.49 3 20.87C3 21.49 3.44024 22 4.00056 22H19.9994C20.5698 22 21 21.49 21 20.87Z" fill="#E61E0A"/>
</svg>
